<svg width="121" height="121" viewBox="0 0 121 121" fill="none" xmlns="http://www.w3.org/2000/svg">
<path d="M111.309 87.5855C110.138 86.8962 108.635 87.296 107.946 88.4678C91.8717 114.095 60.7715 123.593 34.4548 109.422C35.5852 107.533 37.3636 104.404 38.2458 102.805C42.6434 105.107 47.5235 106.734 52.8723 107.575C70.4214 110.332 84.8273 104.142 96.545 91.28C97.3997 90.2185 97.2343 88.6745 96.1866 87.8198C95.1251 86.9651 93.5811 87.1306 92.7264 88.1783C84.2759 97.4559 73.7161 102.832 62.1914 103.287V95.3743C66.5476 95.0159 71.0831 93.8717 75.7564 91.8452C76.9695 91.2249 77.452 89.7498 76.8317 88.5367C76.2113 87.3236 74.7363 86.8411 73.5231 87.4614C57.8351 94.2715 43.9255 89.8739 34.4272 75.7299C33.738 74.5581 32.2353 74.1583 31.0636 74.8338C29.8918 75.5093 29.492 77.0257 30.1675 78.1975C37.5704 89.2397 47.2892 95.1262 58.3866 95.4708V103.246C54.761 103.053 51.0664 102.405 47.303 101.206C34.3997 97.07 25.8388 88.2196 20.5865 75.9642C20.104 74.696 18.6703 74.0618 17.4021 74.5443C16.1338 75.0268 15.4997 76.4605 15.9821 77.7288C20.2005 87.5717 26.5557 95.5398 34.8959 100.861L31.0773 107.478C30.8843 107.368 30.6914 107.244 30.4984 107.12C18.5187 99.4135 11.8327 89.5017 7.35238 76.2124C6.96638 74.9028 5.60161 74.1583 4.30577 74.5443C2.99614 74.9303 2.25172 76.2951 2.63771 77.5909C8.02787 93.596 16.8369 105.576 31.9596 113.682C61.2402 129.37 94.7805 118.658 112.178 90.9216C112.867 89.7498 112.467 88.2472 111.296 87.5579L111.309 87.5855Z" fill="#452265"/>
<path d="M110.069 27.1771C77.0798 -21.679 0.349307 1.66 0.252808 60.745C0.252808 62.1097 1.35565 63.1988 2.72042 63.1988C4.0852 63.1988 5.17426 62.096 5.17426 60.745C5.24318 16.3003 52.5415 -6.10127 86.2886 11.9165L82.4424 18.5749C53.7408 3.6727 12.9631 22.0764 12.8666 60.745C12.8666 62.1097 13.9695 63.1988 15.3342 63.1988C16.699 63.1988 17.7881 62.096 17.7881 60.745C17.8432 35.2279 37.6668 19.5675 58.3866 18.4095V26.0191C39.4314 26.9427 26.4316 41.7622 25.4804 60.7587C25.4804 62.1097 26.5833 63.2126 27.9342 63.2126C29.2852 63.2126 30.4019 62.1097 30.4019 60.7587C31.4496 40.0942 49.55 26.1294 69.1669 32.2226C86.4816 37.599 93.9809 55.3686 87.8601 72.2697C87.3363 73.5242 87.929 74.9717 89.1835 75.4955C90.438 76.0194 91.8717 75.4266 92.3956 74.1721L93.5398 71.0014C100.226 49.2616 84.5516 27.2322 62.1914 26.0329V18.3681C75.9632 18.7817 89.6247 25.702 97.6617 40.494C103.328 50.9296 103.962 61.3377 101.108 72.6281C100.722 73.9378 101.48 75.3025 102.79 75.6747C104.1 76.0607 105.464 75.3025 105.836 73.9929C109.021 61.3929 108.318 49.7854 101.99 38.1366C97.7719 30.3616 92.1612 24.5578 85.8061 20.5187C86.8951 18.6714 88.6321 15.5559 89.5833 13.8327C95.7317 17.7202 101.342 23.0414 106.002 29.9342C114.907 43.127 117.072 57.4778 114.08 72.8349C113.777 74.1583 114.618 75.4817 115.941 75.7712C117.265 76.0607 118.588 75.2336 118.878 73.9102C122.131 57.1883 119.774 41.5417 110.069 27.1909V27.1771Z" fill="#452265"/>
<path fill-rule="evenodd" clip-rule="evenodd" d="M86.8538 83.8634C83.8485 83.8634 81.6842 83.8634 81.6842 83.8634C77.645 78.294 64.9485 63.3367 63.4045 59.0907C63.3632 58.9942 63.4459 58.8977 63.5424 58.8977C65.7205 58.8977 73.6058 58.8563 75.8253 58.8563C76.9833 58.8563 77.9345 57.9603 77.9345 56.8574C77.9345 55.7546 76.9833 54.8585 75.8253 54.8585L44.7664 54.8999C43.5947 54.8999 42.6572 55.7959 42.6572 56.8988C42.6572 58.0843 43.5947 58.8977 44.7664 58.8977H58.1936C58.9104 58.8977 59.6273 59.1045 60.1649 59.5732C62.1362 61.2964 62.4395 64.5774 60.9231 67.362C58.9656 70.9601 56.0017 71.2909 50.6115 71.2909C48.5712 71.2909 41.6233 71.2634 34.1653 71.2358H4.03006C2.80314 71.2358 1.67272 70.4087 1.46594 69.2093C1.20401 67.6791 2.38957 66.3419 3.87842 66.3419H33.5588C36.1367 66.3419 38.8386 66.3419 41.5406 66.3419H49.3432C49.4259 66.3419 49.4949 66.3419 49.5638 66.3419C50.5564 66.3419 51.5351 66.3419 52.4863 66.3419C55.464 66.3281 56.9253 66.1351 56.8288 63.0747C56.8288 62.9507 56.7323 62.8542 56.6082 62.8542C51.5903 62.8266 44.5596 63.1299 40.741 62.8817C36.8673 62.6198 35.5301 50.3506 45.5798 50.5712C55.2021 50.5988 64.8382 50.5299 74.4605 50.5712C79.1063 50.7642 82.3735 51.3846 82.4975 57.078C82.4286 63.8467 73.785 62.8679 71.731 62.8679C71.5518 62.8679 71.4553 63.0747 71.5656 63.2126C73.7713 66.1213 82.0977 76.8603 84.2207 78.9419C84.2345 78.9419 105.409 78.9419 105.423 78.9557H113.281C114.508 78.9557 115.638 79.7828 115.845 80.9822C116.107 82.5124 114.921 83.8496 113.432 83.8496H86.8538V83.8634Z" fill="#903995"/>
</svg>
